<?xml version="1.0" encoding="iso-8859-1"?>
<!-- Generator: Adobe Illustrator 18.0.0, SVG Export Plug-In . SVG Version: 6.00 Build 0)  -->
<!DOCTYPE svg PUBLIC "-//W3C//DTD SVG 1.1//EN" "http://www.w3.org/Graphics/SVG/1.1/DTD/svg11.dtd">
<svg version="1.1" id="Capa_1" xmlns="http://www.w3.org/2000/svg" xmlns:xlink="http://www.w3.org/1999/xlink" x="0px" y="0px"
	 viewBox="0 0 395 395" style="enable-background:new 0 0 395 395;" xml:space="preserve">
<g>
	<path d="M204.696,249.673c-5.604,6.772-21.093-10.927-31.559-24.85c-10.479-13.909-20.657-35.314-12.362-38.218
		c15.39-5.368,6.384-41.444-5.875-59.048c-12.269-17.617-25.103-29.883-43.568-17.027c-4.631,3.23-45.871,43.993,22.263,141.827
		c68.13,97.84,120.666,73.302,125.295,70.078c18.469-12.862,11.415-29.15-0.85-46.77
		C245.777,258.061,215.064,237.098,204.696,249.673z"/>
	<path d="M194.557,134.159c1.57,1.086,3.023,2.294,4.321,3.594c11.701,11.704,12.257,30.545,1.268,42.894
		c-3.628,4.075-3.265,10.32,0.812,13.948c1.883,1.676,4.228,2.5,6.564,2.5c2.722,0,5.433-1.118,7.384-3.311
		c17.939-20.155,17.038-50.903-2.052-70c-2.137-2.138-4.511-4.114-7.055-5.874c-4.49-3.105-10.643-1.982-13.746,2.504
		C188.947,124.901,190.068,131.056,194.557,134.159z"/>
	<path d="M223.182,104.255c1.684,1.411,3.3,2.89,4.804,4.393c27.904,27.903,28.559,72.235,1.491,100.926
		c-3.744,3.969-3.563,10.223,0.406,13.967c1.91,1.801,4.346,2.693,6.778,2.693c2.624,0,5.245-1.04,7.188-3.1
		c16.518-17.509,25.434-40.423,25.107-64.521c-0.329-24.149-9.917-46.856-27.001-63.939c-1.911-1.91-3.957-3.781-6.079-5.561
		c-4.182-3.506-10.413-2.958-13.919,1.224C218.451,94.518,219,100.749,223.182,104.255z"/>
	<path d="M265.279,60.118c-4.076-3.626-10.321-3.261-13.949,0.814c-3.627,4.077-3.262,10.322,0.814,13.949
		c1.793,1.595,3.414,3.119,4.952,4.655c43.449,43.448,44.149,114.811,1.56,159.079c-3.783,3.932-3.662,10.187,0.27,13.97
		c1.916,1.844,4.384,2.76,6.849,2.76c2.592,0,5.182-1.015,7.121-3.03c24.325-25.284,37.548-58.547,37.231-93.659
		c-0.317-35.161-14.188-68.222-39.063-93.096C269.252,63.749,267.359,61.969,265.279,60.118z"/>
	<path d="M313.002,0H82C36.785,0,0,36.784,0,81.998v230.993C0,358.211,36.785,395,82,395h231.002
		C358.216,395,395,358.211,395,312.991V81.998C395,36.784,358.216,0,313.002,0z M380,312.991C380,349.94,349.944,380,313.002,380H82
		c-36.944,0-67-30.06-67-67.009V81.998C15,45.056,45.056,15,82,15h231.002C349.944,15,380,45.056,380,81.998V312.991z"/>
</g>
<g>
</g>
<g>
</g>
<g>
</g>
<g>
</g>
<g>
</g>
<g>
</g>
<g>
</g>
<g>
</g>
<g>
</g>
<g>
</g>
<g>
</g>
<g>
</g>
<g>
</g>
<g>
</g>
<g>
</g>
</svg>
