<svg width="42" height="67" viewBox="0 0 42 67" fill="none" xmlns="http://www.w3.org/2000/svg">
<path d="M33.504 66.506C31.233 66.506 29.099 65.622 27.493 64.017L2.98699 39.511C1.34099 37.866 0.440994 35.59 0.507995 33.256C0.440995 30.919 1.341 28.643 2.987 26.995L27.494 2.488C29.099 0.883998 31.233 -9.41237e-07 33.504 -7.427e-07C35.775 -5.44163e-07 37.909 0.883999 39.514 2.488C42.828 5.802 42.828 11.195 39.514 14.509L20.771 33.252L39.514 51.995C42.828 55.309 42.828 60.702 39.514 64.016C37.907 65.622 35.774 66.506 33.504 66.506ZM33.504 4C32.302 4 31.172 4.468 30.322 5.316L6.28899 29.822C5.39799 30.716 5.45599 31.906 5.45599 33.177C5.45599 33.228 5.45599 33.279 5.45599 33.328C5.45599 34.599 5.39799 35.789 6.28899 36.681L30.559 61.189C31.409 62.039 32.421 62.506 33.622 62.506C34.825 62.506 35.895 62.038 36.745 61.189C38.5 59.434 38.47 56.579 36.715 54.824L16.543 34.668C15.762 33.887 15.755 32.621 16.536 31.84L36.689 11.684C38.443 9.928 38.442 7.073 36.688 5.319C35.838 4.468 34.706 4 33.504 4Z" fill="white"/>
</svg>
