<svg width="42" height="67" viewBox="0 0 42 67" fill="none" xmlns="http://www.w3.org/2000/svg">
<path d="M9 0C11.271 0 13.405 0.884 15.011 2.489L39.517 26.995C41.163 28.64 42.063 30.916 41.996 33.25C42.063 35.587 41.163 37.863 39.517 39.511L15.01 64.018C13.405 65.622 11.271 66.506 9 66.506C6.729 66.506 4.595 65.622 2.99 64.018C-0.324001 60.704 -0.324001 55.311 2.99 51.997L21.733 33.254L2.99 14.511C-0.324001 11.197 -0.324001 5.804 2.99 2.49C4.597 0.884 6.73 0 9 0ZM9 62.506C10.202 62.506 11.332 62.038 12.182 61.19L36.215 36.684C37.106 35.79 37.048 34.6 37.048 33.329C37.048 33.278 37.048 33.227 37.048 33.178C37.048 31.907 37.106 30.717 36.215 29.825L11.945 5.317C11.095 4.467 10.083 4 8.882 4C7.679 4 6.609 4.468 5.759 5.317C4.004 7.072 4.034 9.927 5.789 11.682L25.961 31.838C26.742 32.619 26.749 33.885 25.968 34.666L5.815 54.822C4.061 56.578 4.062 59.433 5.816 61.187C6.666 62.038 7.798 62.506 9 62.506Z" fill="white"/>
</svg>
